<svg width="140" height="45" viewBox="0 0 140 45" fill="none" xmlns="http://www.w3.org/2000/svg">
<g clip-path="url(#clip0_1_716)">
<g clip-path="url(#clip1_1_716)">
<g clip-path="url(#clip2_1_716)">
<path d="M30.1281 3.14671L28.9896 -0.00331879H16.2866L0.0219231 44.98H11.4935L19.3403 21.7149C17.747 19.3914 16.6517 15.2987 19.1777 8.26841L20.1735 5.51006L22.497 7.3224C22.7061 7.48173 26.915 10.9006 26.1715 18.6479C26.8552 18.2097 27.5656 17.8015 28.3058 17.4098C26.7723 15.1892 25.345 10.645 30.1281 3.14671ZM40.325 31.331L38.5824 26.5147C37.7181 26.6592 36.8431 26.7303 35.9668 26.7271C33.8125 26.6999 31.674 26.3554 29.6202 25.7048L28.8999 25.4857C28.4386 25.8973 27.9805 26.3321 27.5357 26.7968L27.5722 26.8831C28.1108 26.8176 28.6528 26.7855 29.1954 26.7868C31.3961 26.7868 33.9055 27.2914 36.6572 28.2772L39.4188 29.273L37.6065 31.5965C37.5036 31.7293 35.283 34.5009 30.3704 35.1947L30.9546 36.9207L33.6797 45.0099H45.2641L40.325 31.331Z" fill="#EDDD5E"/>
<path d="M35.9302 30.2588C35.9302 30.2588 32.0964 35.1382 22.5103 32.35C22.5103 32.35 24.774 26.2458 35.9302 30.2588Z" fill="white"/>
<path d="M21.1693 8.98538C21.1693 8.98538 26.0487 12.8192 23.2571 22.4054C23.2571 22.4054 17.1595 20.1416 21.1693 8.98538Z" fill="white"/>
<path d="M32.2192 3.79065C32.2192 3.79065 36.0365 8.68 31.0409 17.3202C31.0508 17.3202 25.6702 13.6623 32.2192 3.79065Z" fill="white"/>
<path d="M43.6742 21.7515C43.6742 21.7515 39.784 26.5844 30.2277 23.6833C30.2277 23.6833 32.5678 17.609 43.6742 21.7515Z" fill="white"/>
<path d="M23.2339 44.98C23.2339 44.98 19.1246 42.8025 18.1553 36.0179C17.1861 29.2332 22.5103 21.9938 31.6981 18.1201C35.585 16.4837 37.872 14.4689 39.2164 12.6632C38.2903 11.3786 36.7368 7.76387 41.8718 1.4605C41.8718 1.4605 45.0086 8.62689 40.252 12.7462C39.3027 14.9967 37.3509 17.6787 33.3744 19.8229C26.052 23.7895 16.7015 32.4064 23.2339 44.98Z" fill="white"/>
<path d="M51.0862 27.9021C51.0862 25.7689 51.4182 23.9986 52.082 22.5912C52.6443 21.3243 53.5461 20.2375 54.6877 19.4512C55.6753 18.7809 56.8399 18.4192 58.0335 18.4122C58.9895 18.3924 59.9397 18.5639 60.8284 18.9168C61.5564 19.2131 62.2296 19.6294 62.82 20.1482C63.3447 20.6078 63.8238 21.1169 64.2506 21.6685L63.6731 25.0674C63.0793 24.0792 62.2884 23.2239 61.3495 22.5547C60.5853 21.9673 59.6573 21.6321 58.6941 21.5954C58.0213 21.589 57.3712 21.8381 56.8751 22.2925C56.2832 22.8692 55.8558 23.5934 55.637 24.3903C55.3073 25.5331 55.1551 26.7198 55.1856 27.9088C55.1856 29.9977 55.4865 31.5025 56.0884 32.423C56.6903 33.3436 57.4139 33.805 58.2593 33.8072C59.2329 33.7975 60.1782 33.4777 60.9579 32.8944C61.8192 32.2807 62.5148 31.4629 62.9826 30.5144L63.5801 33.5549C63.1925 34.1762 62.7135 34.7357 62.1594 35.2146C61.5231 35.7725 60.8071 36.2323 60.0351 36.5788C59.21 36.9502 58.3143 37.1382 57.4095 37.1298C56.1348 37.1766 54.8859 36.763 53.891 35.9647C52.9008 35.1032 52.1727 33.9806 51.7899 32.7251C51.2978 31.1657 51.0602 29.5372 51.0862 27.9021ZM67.0189 20.7025C66.6221 21.076 66.3479 21.5609 66.2322 22.0933C66.078 22.7211 66.0022 23.3655 66.0065 24.0119V34.5607C66.019 35.7706 65.9558 36.98 65.8173 38.182C65.7228 39.0222 65.5278 39.848 65.2365 40.6417C65.0064 41.2557 64.6804 41.8293 64.2705 42.3411C63.6156 43.1363 62.7676 43.75 61.8076 44.1236C60.6527 44.5859 59.4167 44.8117 58.173 44.7875C57.0353 44.7864 55.9008 44.6685 54.7873 44.4356C53.7749 44.2364 52.7819 43.9488 51.8198 43.5759C51.8416 43.0236 51.9456 42.4777 52.1285 41.9561C52.2837 41.4513 52.535 40.9813 52.8687 40.572C53.6673 40.9355 54.5016 41.2147 55.3582 41.4051C56.1552 41.5983 56.9712 41.7018 57.7912 41.7138C58.9596 41.7138 59.8581 41.4925 60.4865 41.0499C61.1019 40.6321 61.5553 40.0158 61.7711 39.304C62.0048 38.5145 62.1167 37.6941 62.103 36.8709V23.5074C62.0798 22.3923 62.3573 21.2916 62.9063 20.3208C63.444 19.4047 64.3292 18.8437 65.5617 18.6379C65.9217 18.8759 66.2299 19.1842 66.4679 19.5441C66.7324 19.8873 66.9223 20.2818 67.0256 20.7025H67.0189Z" fill="white"/>
<path d="M70.4079 20.7723C70.5309 20.3474 70.7215 19.945 70.9722 19.5806C71.1934 19.2155 71.4817 18.8957 71.822 18.6379C72.4007 18.723 72.9548 18.93 73.4475 19.2453C73.9402 19.5606 74.3603 19.977 74.6799 20.4669C75.3509 21.5844 75.7245 22.8551 75.7653 24.158V36.8045C75.1079 36.9203 74.4412 36.9747 73.7737 36.9672C73.0953 36.9745 72.4175 36.92 71.7489 36.8045V24.4998C71.7787 23.6822 71.6304 22.8679 71.3141 22.1133C71.104 21.6106 70.796 21.1547 70.4079 20.7723ZM82.0255 18.8902C82.0135 19.5186 81.9345 20.144 81.7899 20.7557C81.6553 21.4267 81.4048 22.0692 81.0497 22.6543C80.7992 22.5962 80.5453 22.554 80.2895 22.5282L79.5095 22.4551C78.912 22.4424 78.3212 22.583 77.7934 22.8634C77.3029 23.1304 76.8689 23.49 76.5155 23.9223C76.1531 24.3672 75.8497 24.857 75.6126 25.3795C75.3701 25.9011 75.1552 26.4352 74.9687 26.9794L74.4077 26.2757C74.4457 25.3812 74.5668 24.4922 74.7695 23.6202C74.964 22.7552 75.2838 21.9232 75.7188 21.1507C76.13 20.4149 76.7145 19.7905 77.4216 19.3317C78.2074 18.8513 79.1169 18.6124 80.0373 18.6446C80.3699 18.6429 80.7024 18.6606 81.0331 18.6977C81.3673 18.7425 81.6987 18.8068 82.0255 18.8902Z" fill="white"/>
<path d="M90.1313 36.8045C88.8013 37.0214 87.4449 37.0214 86.1149 36.8045V23.7231C86.1539 23.2266 86.038 22.7303 85.783 22.3025C85.554 21.9705 85.139 21.8245 84.5349 21.8245H84.1034C83.9927 21.3613 83.937 20.8867 83.9375 20.4105C83.9375 20.1814 83.9375 19.9457 83.974 19.6968C83.9999 19.4441 84.0432 19.1934 84.1034 18.9466C84.5714 18.8869 85.0262 18.8437 85.4577 18.8205C85.8892 18.7973 86.2477 18.784 86.5265 18.784H87.0709C87.4873 18.7642 87.9031 18.8347 88.2898 18.9905C88.6765 19.1463 89.025 19.3839 89.3114 19.6868C89.8921 20.3781 90.1866 21.2651 90.1346 22.1664L90.1313 36.8045ZM84.9963 14.044C84.9827 13.4655 85.096 12.8911 85.3282 12.3611C85.628 12.2075 85.9474 12.0958 86.2776 12.0292C86.6538 11.9391 87.0392 11.8934 87.4261 11.8931C87.816 11.8966 88.2044 11.9422 88.5845 12.0292C88.9146 12.0841 89.2325 12.1965 89.5239 12.3611C89.6313 12.6238 89.7135 12.8961 89.7695 13.1744C89.8328 13.46 89.8662 13.7515 89.8691 14.044C89.8812 14.6277 89.768 15.2073 89.5371 15.7435C89.2519 15.9136 88.9362 16.0264 88.6077 16.0754C88.2234 16.1559 87.832 16.1981 87.4393 16.2016C87.0465 16.2007 86.6549 16.1584 86.2709 16.0754C85.9447 16.0176 85.6306 15.9054 85.3415 15.7435C85.1061 15.2083 84.9884 14.6287 84.9963 14.044Z" fill="white"/>
<path d="M97.2778 18.7276C98.0976 18.7276 98.6818 18.9865 99.0337 19.4976C99.415 20.1321 99.5976 20.8662 99.5581 21.6054V36.8045C98.9009 36.9212 98.234 36.9757 97.5665 36.9672C96.8881 36.9745 96.2104 36.92 95.5418 36.8045V18.9831L95.7774 18.7276H97.2778ZM105.311 25.5321C105.311 24.3151 105.133 23.4554 104.779 22.953C104.605 22.7079 104.371 22.5107 104.1 22.3796C103.829 22.2485 103.53 22.1877 103.229 22.2029C102.568 22.2275 101.925 22.428 101.367 22.7838C100.678 23.19 100.056 23.6993 99.5216 24.294C98.9632 24.8955 98.5139 25.5896 98.1939 26.3454V22.5116C98.7211 21.7796 99.3315 21.1112 100.013 20.52C100.669 19.9448 101.406 19.4695 102.2 19.1093C102.948 18.7687 103.759 18.59 104.58 18.5848C105.512 18.55 106.43 18.8127 107.203 19.335C107.911 19.8456 108.457 20.5498 108.776 21.3631C109.142 22.2731 109.325 23.2467 109.314 24.2277V36.8012C108.656 36.9187 107.99 36.9732 107.322 36.9639C106.642 36.9711 105.964 36.9167 105.294 36.8012L105.311 25.5321ZM115.119 25.4956C115.119 24.2786 114.935 23.4255 114.568 22.9364C114.39 22.6971 114.156 22.505 113.886 22.3771C113.616 22.2492 113.319 22.1894 113.021 22.2029C112.373 22.226 111.742 22.4195 111.192 22.7638C110.501 23.1701 109.875 23.6794 109.337 24.2741C108.746 24.9187 108.255 25.6482 107.88 26.4383V22.1232C108.467 21.466 109.119 20.8689 109.825 20.3407C110.517 19.8187 111.275 19.3901 112.079 19.0661C112.837 18.7562 113.649 18.5961 114.468 18.5948C115.402 18.5577 116.322 18.8244 117.091 19.3549C117.789 19.8749 118.324 20.5846 118.631 21.3996C118.977 22.3122 119.148 23.2817 119.135 24.2575V32.8877C119.133 33.4971 119.182 34.1055 119.281 34.7067C119.361 35.2303 119.532 35.7359 119.786 36.2004C119.452 36.4731 119.072 36.6843 118.664 36.8244C118.212 36.9889 117.734 37.072 117.253 37.0701C116.47 37.0701 115.917 36.8488 115.594 36.4062C115.236 35.8437 115.064 35.183 115.102 34.5175L115.119 25.4956Z" fill="white"/>
<path d="M139.025 27.8789C139.058 29.5599 138.753 31.2305 138.129 32.7915C137.59 34.1358 136.666 35.2907 135.473 36.1108C134.177 36.9408 132.659 37.3565 131.121 37.3024C129.384 37.3024 127.932 36.8986 126.763 36.0909C125.569 35.2628 124.646 34.1014 124.108 32.7517C123.495 31.2017 123.196 29.5454 123.228 27.8789C123.196 26.1983 123.499 24.5281 124.121 22.9663C124.663 21.6244 125.586 20.4705 126.776 19.647C128.092 18.8574 129.598 18.4403 131.133 18.4403C132.668 18.4403 134.174 18.8574 135.49 19.647C136.684 20.4746 137.608 21.6362 138.145 22.9862C138.761 24.5423 139.06 26.2057 139.025 27.8789ZM127.371 27.8789C127.365 28.9217 127.471 29.962 127.686 30.9825C127.847 31.8483 128.236 32.6558 128.811 33.3226C129.111 33.6303 129.474 33.8697 129.875 34.0243C130.276 34.179 130.706 34.2453 131.135 34.2188C131.558 34.2451 131.982 34.1785 132.377 34.0237C132.772 33.8689 133.129 33.6296 133.422 33.3226C133.997 32.6498 134.387 31.8387 134.554 30.9692C134.987 28.9206 134.987 26.804 134.554 24.7554C134.388 23.8807 133.998 23.064 133.422 22.3854C133.131 22.0757 132.775 21.8339 132.379 21.6773C131.984 21.5207 131.559 21.4531 131.135 21.4793C130.705 21.4518 130.274 21.5186 129.873 21.6751C129.471 21.8317 129.109 22.0741 128.811 22.3854C128.231 23.0616 127.841 23.8793 127.679 24.7554C127.466 25.7827 127.363 26.8298 127.371 27.8789Z" fill="white"/>
</g>
</g>
</g>
<defs>
<clipPath id="clip0_1_716">
<rect width="139.05" height="44.98" fill="white"/>
</clipPath>
<clipPath id="clip1_1_716">
<rect width="139.05" height="44.98" fill="white"/>
</clipPath>
<clipPath id="clip2_1_716">
<rect width="139" height="44.98" fill="white" transform="translate(0.0252419)"/>
</clipPath>
</defs>
</svg>
